<mxfile host="app.diagrams.net" modified="2024-06-30T03:04:11.128Z" agent="Mozilla/5.0 (Windows NT 10.0; Win64; x64) AppleWebKit/537.36 (KHTML, like Gecko) Chrome/126.0.0.0 Safari/537.36" etag="I0K-mla7HqkCuCNl3dZr" version="24.6.4" type="github">
  <diagram name="Página-1" id="mS5vbFw05di2gy-Z6ZC0">
    <mxGraphModel dx="989" dy="1707" grid="1" gridSize="10" guides="1" tooltips="1" connect="1" arrows="1" fold="1" page="1" pageScale="1" pageWidth="827" pageHeight="1169" math="0" shadow="0">
      <root>
        <mxCell id="0" />
        <mxCell id="1" parent="0" />
        <mxCell id="2" value="Projétil" style="swimlane;fontStyle=1;align=center;verticalAlign=top;childLayout=stackLayout;horizontal=1;startSize=27.428571428571427;horizontalStack=0;resizeParent=1;resizeParentMax=0;resizeLast=0;collapsible=0;marginBottom=0;" parent="1" vertex="1">
          <mxGeometry x="126" y="8" width="109" height="68.42857142857143" as="geometry" />
        </mxCell>
        <mxCell id="3" value="instanciar(tipo)" style="text;strokeColor=none;fillColor=none;align=left;verticalAlign=top;spacingLeft=4;spacingRight=4;overflow=hidden;rotatable=0;points=[[0,0.5],[1,0.5]];portConstraint=eastwest;" parent="2" vertex="1">
          <mxGeometry y="27.428571428571427" width="109" height="27" as="geometry" />
        </mxCell>
        <mxCell id="5" style="line;strokeWidth=1;fillColor=none;align=left;verticalAlign=middle;spacingTop=-1;spacingLeft=3;spacingRight=3;rotatable=0;labelPosition=right;points=[];portConstraint=eastwest;strokeColor=inherit;" parent="2" vertex="1">
          <mxGeometry y="54.42857142857143" width="109" height="14" as="geometry" />
        </mxCell>
        <mxCell id="6" value="Água" style="swimlane;fontStyle=1;align=center;verticalAlign=top;childLayout=stackLayout;horizontal=1;startSize=32;horizontalStack=0;resizeParent=1;resizeParentMax=0;resizeLast=0;collapsible=0;marginBottom=0;" parent="1" vertex="1">
          <mxGeometry x="8" y="162" width="152" height="72" as="geometry" />
        </mxCell>
        <mxCell id="7" value="neutralizar()" style="text;strokeColor=none;fillColor=none;align=left;verticalAlign=top;spacingLeft=4;spacingRight=4;overflow=hidden;rotatable=0;points=[[0,0.5],[1,0.5]];portConstraint=eastwest;" parent="6" vertex="1">
          <mxGeometry y="32" width="152" height="32" as="geometry" />
        </mxCell>
        <mxCell id="8" style="line;strokeWidth=1;fillColor=none;align=left;verticalAlign=middle;spacingTop=-1;spacingLeft=3;spacingRight=3;rotatable=0;labelPosition=right;points=[];portConstraint=eastwest;strokeColor=inherit;" parent="6" vertex="1">
          <mxGeometry y="64" width="152" height="8" as="geometry" />
        </mxCell>
        <mxCell id="10" value="Fogo" style="swimlane;fontStyle=1;align=center;verticalAlign=top;childLayout=stackLayout;horizontal=1;startSize=32;horizontalStack=0;resizeParent=1;resizeParentMax=0;resizeLast=0;collapsible=0;marginBottom=0;" parent="1" vertex="1">
          <mxGeometry x="210" y="162" width="137" height="72" as="geometry" />
        </mxCell>
        <mxCell id="11" value="neutralizar()" style="text;strokeColor=none;fillColor=none;align=left;verticalAlign=top;spacingLeft=4;spacingRight=4;overflow=hidden;rotatable=0;points=[[0,0.5],[1,0.5]];portConstraint=eastwest;" parent="10" vertex="1">
          <mxGeometry y="32" width="137" height="32" as="geometry" />
        </mxCell>
        <mxCell id="12" style="line;strokeWidth=1;fillColor=none;align=left;verticalAlign=middle;spacingTop=-1;spacingLeft=3;spacingRight=3;rotatable=0;labelPosition=right;points=[];portConstraint=eastwest;strokeColor=inherit;" parent="10" vertex="1">
          <mxGeometry y="64" width="137" height="8" as="geometry" />
        </mxCell>
        <mxCell id="14" value="Cachorro" style="swimlane;fontStyle=1;align=center;verticalAlign=top;childLayout=stackLayout;horizontal=1;startSize=29.2;horizontalStack=0;resizeParent=1;resizeParentMax=0;resizeLast=0;collapsible=0;marginBottom=0;" parent="1" vertex="1">
          <mxGeometry x="34" y="316" width="101" height="81" as="geometry" />
        </mxCell>
        <mxCell id="15" style="line;strokeWidth=1;fillColor=none;align=left;verticalAlign=middle;spacingTop=-1;spacingLeft=3;spacingRight=3;rotatable=0;labelPosition=right;points=[];portConstraint=eastwest;strokeColor=inherit;" parent="14" vertex="1">
          <mxGeometry y="44" width="101" height="8" as="geometry" />
        </mxCell>
        <mxCell id="16" value="+Void latir()" style="text;strokeColor=none;fillColor=none;align=left;verticalAlign=top;spacingLeft=4;spacingRight=4;overflow=hidden;rotatable=0;points=[[0,0.5],[1,0.5]];portConstraint=eastwest;" parent="14" vertex="1">
          <mxGeometry y="52" width="101" height="29" as="geometry" />
        </mxCell>
        <mxCell id="17" value="" style="curved=1;startArrow=block;startSize=16;startFill=0;endArrow=none;exitX=0;exitY=0.92;entryX=0.5;entryY=0;" parent="1" source="2" target="6" edge="1">
          <mxGeometry relative="1" as="geometry">
            <Array as="points">
              <mxPoint x="84" y="137" />
            </Array>
          </mxGeometry>
        </mxCell>
        <mxCell id="18" value="" style="curved=1;startArrow=block;startSize=16;startFill=0;endArrow=none;exitX=1.01;exitY=0.92;entryX=0.5;entryY=0;" parent="1" source="2" target="10" edge="1">
          <mxGeometry relative="1" as="geometry">
            <Array as="points">
              <mxPoint x="278" y="137" />
            </Array>
          </mxGeometry>
        </mxCell>
        <mxCell id="19" value="" style="curved=1;startArrow=block;startSize=16;startFill=0;endArrow=none;exitX=0.5;exitY=1;entryX=0.49;entryY=0;" parent="1" source="6" target="14" edge="1">
          <mxGeometry relative="1" as="geometry">
            <Array as="points" />
          </mxGeometry>
        </mxCell>
        <mxCell id="5vDjL4V7Uai_XHuMSzMT-19" value="Terra" style="swimlane;fontStyle=1;align=center;verticalAlign=top;childLayout=stackLayout;horizontal=1;startSize=32;horizontalStack=0;resizeParent=1;resizeParentMax=0;resizeLast=0;collapsible=0;marginBottom=0;" vertex="1" parent="1">
          <mxGeometry x="210" y="-150" width="137" height="72" as="geometry" />
        </mxCell>
        <mxCell id="5vDjL4V7Uai_XHuMSzMT-20" value="neutralizar()" style="text;strokeColor=none;fillColor=none;align=left;verticalAlign=top;spacingLeft=4;spacingRight=4;overflow=hidden;rotatable=0;points=[[0,0.5],[1,0.5]];portConstraint=eastwest;" vertex="1" parent="5vDjL4V7Uai_XHuMSzMT-19">
          <mxGeometry y="32" width="137" height="32" as="geometry" />
        </mxCell>
        <mxCell id="5vDjL4V7Uai_XHuMSzMT-21" style="line;strokeWidth=1;fillColor=none;align=left;verticalAlign=middle;spacingTop=-1;spacingLeft=3;spacingRight=3;rotatable=0;labelPosition=right;points=[];portConstraint=eastwest;strokeColor=inherit;" vertex="1" parent="5vDjL4V7Uai_XHuMSzMT-19">
          <mxGeometry y="64" width="137" height="8" as="geometry" />
        </mxCell>
        <mxCell id="5vDjL4V7Uai_XHuMSzMT-23" value="Tornado" style="swimlane;fontStyle=1;align=center;verticalAlign=top;childLayout=stackLayout;horizontal=1;startSize=32;horizontalStack=0;resizeParent=1;resizeParentMax=0;resizeLast=0;collapsible=0;marginBottom=0;" vertex="1" parent="1">
          <mxGeometry x="23" y="-150" width="137" height="72" as="geometry" />
        </mxCell>
        <mxCell id="5vDjL4V7Uai_XHuMSzMT-24" value="neutralizar()" style="text;strokeColor=none;fillColor=none;align=left;verticalAlign=top;spacingLeft=4;spacingRight=4;overflow=hidden;rotatable=0;points=[[0,0.5],[1,0.5]];portConstraint=eastwest;" vertex="1" parent="5vDjL4V7Uai_XHuMSzMT-23">
          <mxGeometry y="32" width="137" height="32" as="geometry" />
        </mxCell>
        <mxCell id="5vDjL4V7Uai_XHuMSzMT-25" style="line;strokeWidth=1;fillColor=none;align=left;verticalAlign=middle;spacingTop=-1;spacingLeft=3;spacingRight=3;rotatable=0;labelPosition=right;points=[];portConstraint=eastwest;strokeColor=inherit;" vertex="1" parent="5vDjL4V7Uai_XHuMSzMT-23">
          <mxGeometry y="64" width="137" height="8" as="geometry" />
        </mxCell>
        <mxCell id="5vDjL4V7Uai_XHuMSzMT-28" value="" style="curved=1;startArrow=block;startSize=16;startFill=0;endArrow=none;exitX=0;exitY=0.25;entryX=0.5;entryY=1;entryDx=0;entryDy=0;exitDx=0;exitDy=0;" edge="1" parent="1" source="2" target="5vDjL4V7Uai_XHuMSzMT-23">
          <mxGeometry relative="1" as="geometry">
            <Array as="points">
              <mxPoint x="50" y="70" />
              <mxPoint x="73.23" y="152.71" />
            </Array>
            <mxPoint x="103.70400000000005" y="51.290571428571376" as="sourcePoint" />
            <mxPoint x="87.80099999999993" y="-46.41600000000017" as="targetPoint" />
          </mxGeometry>
        </mxCell>
        <mxCell id="5vDjL4V7Uai_XHuMSzMT-29" value="" style="curved=1;startArrow=block;startSize=16;startFill=0;endArrow=none;exitX=1.003;exitY=0.079;exitDx=0;exitDy=0;exitPerimeter=0;entryX=0.5;entryY=1;entryDx=0;entryDy=0;" edge="1" parent="1" target="5vDjL4V7Uai_XHuMSzMT-19">
          <mxGeometry relative="1" as="geometry">
            <Array as="points">
              <mxPoint x="269.96000000000004" y="-22.92" />
              <mxPoint x="293.19000000000005" y="59.79000000000002" />
              <mxPoint x="309.67" y="18.72" />
            </Array>
            <mxPoint x="234.99699999999999" y="36.281571428571596" as="sourcePoint" />
            <mxPoint x="306.392" y="-46.00000000000003" as="targetPoint" />
          </mxGeometry>
        </mxCell>
      </root>
    </mxGraphModel>
  </diagram>
</mxfile>
